<svg width="20" height="17" viewBox="0 0 20 17" fill="none" xmlns="http://www.w3.org/2000/svg">
    <path d="M16.9174 14.4775C17.3161 14.0788 17.6324 13.6054 17.8482 13.0845C18.064 12.5635 18.175 12.0052 18.175 11.4413C18.175 10.8775 18.064 10.3191 17.8482 9.79816C17.6324 9.27722 17.3161 8.80387 16.9174 8.40516L9.58751 1.07525L2.2576 8.40516C1.45236 9.2104 0.999986 10.3025 0.999986 11.4413C0.999986 12.5801 1.45236 13.6722 2.2576 14.4775C3.06284 15.2827 4.15498 15.7351 5.29376 15.7351C6.43254 15.7351 7.52468 15.2827 8.32992 14.4775L9.58751 13.2199L10.8451 14.4775C11.2438 14.8762 11.7172 15.1925 12.2381 15.4083C12.759 15.624 13.3174 15.7351 13.8813 15.7351C14.4451 15.7351 15.0035 15.624 15.5244 15.4083C16.0454 15.1925 16.5187 14.8762 16.9174 14.4775V14.4775Z" stroke="black" stroke-width="2" stroke-linecap="round" stroke-linejoin="round"/>
</svg>
